<svg id="Layer_1" data-name="Layer 1" xmlns="http://www.w3.org/2000/svg" viewBox="0 0 800 800"><defs><style>.cls-1,.cls-3{fill:#0e2647;}.cls-2{fill:#f99f3d;}.cls-3{font-size:53.01px;font-family:Cambria;}</style></defs><path class="cls-1" d="M144.35,570.2v-.1L146,554a3.08,3.08,0,0,1,1-2.09,3,3,0,0,1,2.11-.83l54.61-.15a3.17,3.17,0,0,1,2.17.83,3.06,3.06,0,0,1,1,2.07l1.69,16.12v.1c0,1-.45,1.56-1.34,1.57h-2q-1.14,0-3.57-3.73a82.67,82.67,0,0,0-5.55-7.52c-2.06-2.53-4.1-3.79-6.09-3.79H188a2.85,2.85,0,0,0-2.11.89,2.9,2.9,0,0,0-.88,2.13l.13,49c0,1.73,1.09,3.77,3.27,6.12s3.26,3.84,3.26,4.46v.94a1.28,1.28,0,0,1-1.44,1.46l-27.05.07c-1.1,0-1.66-.44-1.66-1.35a5.75,5.75,0,0,1,.2-2.29,7.19,7.19,0,0,1,2-2.34,23.47,23.47,0,0,0,3.13-3.55,5.67,5.67,0,0,0,1.29-3.69L168,559.64a3.09,3.09,0,0,0-.78-2.13,2.55,2.55,0,0,0-2-.88h-2.48A7.13,7.13,0,0,0,158,559a23.88,23.88,0,0,0-4.17,5.21c-1.13,1.91-2.27,3.65-3.39,5.21s-2,2.34-2.63,2.35h-2.07C144.8,571.76,144.35,571.25,144.35,570.2Z"/><path class="cls-1" d="M204.67,621.52c-1,0-1.55-.45-1.55-1.35v-1c0-.76,1.24-2.3,3.71-4.64a19.53,19.53,0,0,0,5-6.93l14.63-48.29c.48-2.91.37-4.89-.32-5.92A1.44,1.44,0,0,1,226,552a1.39,1.39,0,0,1,.88-.94c1.92-1.19,4.84-1.78,8.77-1.79a23.32,23.32,0,0,1,2.68.09,12,12,0,0,1,8.53,3.46q3.36,3.38,5.65,10.44.42,1.46,3.28,11.69t5.42,18.91q2.55,8.67,4,12.52l.31.63a.74.74,0,0,1,.16.2.54.54,0,0,1,.05.21,20.14,20.14,0,0,0,5.33,6.9q3.89,3.48,3.88,4.62v1a1.2,1.2,0,0,1-1.34,1.36l-28.7.07a1.69,1.69,0,0,1-1.76-1.35,4,4,0,0,1,.2-2.29,12.13,12.13,0,0,1,1.5-2.13,10.75,10.75,0,0,0,1.84-3.34,6.47,6.47,0,0,0-.06-3.89l-1-4.57c-.28-.56-.63-.84-1-.84l-24.26.07q-.93,0-.93.84L218,608.17a6.71,6.71,0,0,0,0,4.27,10.78,10.78,0,0,0,2,3.37,11.27,11.27,0,0,1,1.51,2,3.12,3.12,0,0,1,.25,1c0,.39.05.71.06,1l-.1.31a1.22,1.22,0,0,1-.52.94,1.65,1.65,0,0,1-1,.42Zm16.86-25.21a1,1,0,0,0,.16,1,1,1,0,0,0,.78.46l20.44-.06c.82,0,1.17-.48,1-1.45q-5.12-22.35-9-30.87A2.41,2.41,0,0,0,232.7,564a2.1,2.1,0,0,0-2.16,1.67Z"/><path class="cls-1" d="M342.57,613.45c.75,0,1.13.31,1.13.94-.2,1.87-1.34,3.73-3.44,5.57a11.68,11.68,0,0,1-8,2.77,13.26,13.26,0,0,1-8.48-2.57,24.26,24.26,0,0,1-6.1-7.89q-.53-.93-2.86-6.23a35.86,35.86,0,0,0-4.41-7.84,11.73,11.73,0,0,0-5.17-3.68c-1.44-.2-2.17-.37-2.17-.51l0,14.25c0,1.73,1.13,3.77,3.37,6.12s3.36,3.84,3.36,4.46v.94a1.34,1.34,0,0,1-.51,1,1.69,1.69,0,0,1-1.14.47l-27.15.08a1.45,1.45,0,0,1-1-.42,1.24,1.24,0,0,1-.47-.93,3.23,3.23,0,0,1,0-2.29,39.47,39.47,0,0,1,3.4-3.81c2.2-2.33,3.29-4.25,3.29-5.78l-.11-44q0-2.39-3.27-5.81a30.31,30.31,0,0,1-3.47-3.94,1.58,1.58,0,0,1-.21-.89,3.58,3.58,0,0,1,.11-1l.09-.42c0-.76.48-1.14,1.45-1.15l31.59-.29q11.34,0,18.7,6.4a20.34,20.34,0,0,1,7.37,15.89,20.92,20.92,0,0,1-3.74,12.28,22,22,0,0,1-10.56,8,12.17,12.17,0,0,1,5.59,5.09q1,1.76,2.7,5c1.1,2.18,2,3.89,2.69,5.14a15.24,15.24,0,0,0,2.7,3.48,5,5,0,0,0,3.51,1.6A4.8,4.8,0,0,0,342.57,613.45Zm-20.66-42.16a25.07,25.07,0,0,0-4.72-11.64q-3.58-4.56-7.71-4.55a6.19,6.19,0,0,0-1.34.1,5.08,5.08,0,0,0-2.26,1.16,5.3,5.3,0,0,0-1.44,2.23,16.69,16.69,0,0,0-.77,2.82,23.29,23.29,0,0,0-.3,3.58c0,1.46,0,2.76,0,3.9s.09,2.61.16,4.37.12,3.21.12,4.32c.08,4.23,1.06,7.22,3,9a9.4,9.4,0,0,0,6.66,2.63,10.33,10.33,0,0,0,2.89-.43c2.82-.76,4.66-2.82,5.51-6.14A27.58,27.58,0,0,0,321.91,571.29Z"/><path class="cls-1" d="M410.26,601.21a16.15,16.15,0,0,1-7.09,14Q396,620.48,384.09,621h.1l-34.79.09a1.44,1.44,0,0,1-1-.41,1.25,1.25,0,0,1-.47-.94,3.17,3.17,0,0,1,0-2.29,38.83,38.83,0,0,1,3.39-3.8c2.2-2.33,3.29-4.25,3.29-5.78l-.11-44q0-2.38-3.27-5.82a30.31,30.31,0,0,1-3.47-3.94,1.55,1.55,0,0,1-.21-.88,3.53,3.53,0,0,1,.11-1l.1-.42c0-.76.47-1.15,1.44-1.15l31-.08H381q10.23,0,16.74,4.79c4.35,3.22,6.55,7.22,6.64,12a14.66,14.66,0,0,1-3.64,9.74,21,21,0,0,1-10.15,6.32q9,1.32,14.26,6.2A15.6,15.6,0,0,1,410.26,601.21ZM388.07,565c-2.08-7.33-5.43-11-10-11q-5.58,0-6.8,6.88l0,5.62a.76.76,0,0,0,.1.31v.1q2.2,14.36,10.36,14.33a8.78,8.78,0,0,0,2.48-.43c2.34-.76,3.85-2.8,4.53-6.09A18.11,18.11,0,0,0,388.07,565Zm-5.85,51.5a10.91,10.91,0,0,0,8.76-4.29q3.5-4.27,2.35-10.72a14.23,14.23,0,0,0-3.17-7,18.28,18.28,0,0,0-7.39-4.45l-2-.72c-1.13-.41-2-.74-2.53-1s-1.29-.61-2.22-1.09a14.44,14.44,0,0,1-2.54-1.66,15,15,0,0,1-2.07-2.07l0,7.07a94.45,94.45,0,0,0,1.07,12.17,37.26,37.26,0,0,0,1.88,7.64,10.5,10.5,0,0,0,2.69,4,7.44,7.44,0,0,0,2.64,1.71A14,14,0,0,0,382.22,616.47Z"/><path class="cls-1" d="M412.82,554a1.57,1.57,0,0,1-.21-.88,4.08,4.08,0,0,1,.1-1l.1-.42q0-1.14,1.44-1.14l27.15-.28c1.1,0,1.65.51,1.66,1.55v.83c0,.7-1.11,2.24-3.34,4.64s-3.35,4.43-3.34,6.09l.11,44.51q0,2.6,3.37,6.12t3.37,4.47v.93a1.31,1.31,0,0,1-.51,1,1.66,1.66,0,0,1-1.13.48l-27.16.07a1.43,1.43,0,0,1-1-.42,1.2,1.2,0,0,1-.47-.93,3.24,3.24,0,0,1,0-2.29,38.78,38.78,0,0,1,3.4-3.8c2.19-2.34,3.29-4.26,3.29-5.79l-.12-44q0-2.4-3.26-5.82A29.42,29.42,0,0,1,412.82,554Z"/><path class="cls-1" d="M514.39,551.63v.84c0,.56-.73,1.27-2.21,2.14a40.29,40.29,0,0,0-6.08,4.85,33.82,33.82,0,0,0-6.84,9.17q-10.47,21.87-11.81,24.47h.11l0,15.18q-.11,2.4,3.32,5.76t3.41,4.42v.93a1.23,1.23,0,0,1-.52.94,1.77,1.77,0,0,1-1.14.42l-27.14.07a1.61,1.61,0,0,1-1-.36,1,1,0,0,1-.46-.78,4.11,4.11,0,0,1,0-2.29,33.16,33.16,0,0,1,3.44-3.6c2.23-2.18,3.31-4.08,3.24-5.67l0-12.38a.58.58,0,0,0-.11-.26.61.61,0,0,1-.1-.36l-17.12-31.46a22,22,0,0,0-4.87-5.5c-2.48-2.22-3.82-3.56-4-4v-2.29c0-.89.51-1.35,1.54-1.35l27.15-.07c1.1,0,1.65.44,1.65,1.34v.94q0,.83-1.38,2.19a6.86,6.86,0,0,0-1.85,2.81q-.47,1.46,1.1,5.4,10.36,18.79,11.2,20.25a1.06,1.06,0,0,0,1,.73,1.27,1.27,0,0,0,1.14-.73l7.8-15.83v-.1a14.15,14.15,0,0,0,1.18-4.48,7.59,7.59,0,0,0-.48-3.53,12,12,0,0,0-1.34-2.44,17.82,17.82,0,0,0-1.71-2,11.23,11.23,0,0,1-1.2-1.31,1.12,1.12,0,0,1-.31-.82,4.44,4.44,0,0,1,.1-.94l.11-.42c0-.62.54-1.07,1.65-1.35l21-.06A1.37,1.37,0,0,1,514.39,551.63Z"/><path class="cls-1" d="M510.55,620.7c-1,0-1.55-.45-1.55-1.35v-1q0-1.14,3.71-4.64a19.53,19.53,0,0,0,5-6.93l14.63-48.29c.48-2.91.37-4.89-.32-5.92a1.46,1.46,0,0,1-.16-1.36,1.39,1.39,0,0,1,.88-.93c1.92-1.19,4.84-1.78,8.77-1.79a23.32,23.32,0,0,1,2.68.09,11.9,11.9,0,0,1,8.53,3.46q3.36,3.38,5.65,10.44.42,1.45,3.28,11.69T567.1,593q2.55,8.67,4,12.52l.31.62a1,1,0,0,1,.16.21.54.54,0,0,1,0,.21,20.14,20.14,0,0,0,5.33,6.9q3.88,3.48,3.88,4.62v1a1.2,1.2,0,0,1-1.34,1.36l-28.7.07a1.71,1.71,0,0,1-1.76-1.35,4,4,0,0,1,.2-2.29,12.13,12.13,0,0,1,1.5-2.13,10.75,10.75,0,0,0,1.84-3.34,6.47,6.47,0,0,0-.06-3.89l-1-4.58c-.28-.55-.63-.83-1-.83l-24.26.07q-.93,0-.93.84l-1.43,4.26a6.71,6.71,0,0,0,0,4.27,10.78,10.78,0,0,0,2,3.37,11.27,11.27,0,0,1,1.51,2,3.12,3.12,0,0,1,.25,1c0,.38.05.71.06,1l-.1.31a1.22,1.22,0,0,1-.52.94,1.65,1.65,0,0,1-1,.42Zm16.87-25.21a.93.93,0,0,0,.15,1,1,1,0,0,0,.78.46l20.44-.06c.82,0,1.17-.48,1-1.45q-5.12-22.35-9-30.87a2.43,2.43,0,0,0-2.28-1.34,2.1,2.1,0,0,0-2.16,1.67Z"/><path class="cls-1" d="M585.32,553.53a1.58,1.58,0,0,1-.21-.89,3.53,3.53,0,0,1,.11-1l.09-.42c0-.76.48-1.14,1.45-1.15l27.15-.28c1.1,0,1.65.52,1.65,1.55v.84c0,.69-1.11,2.24-3.34,4.63s-3.34,4.43-3.34,6.09l0,17.27a3,3,0,0,0,.88,2.23,2.89,2.89,0,0,0,2.12.88l16.93,0a2.78,2.78,0,0,0,2-.89,3,3,0,0,0,.87-2.24l0-17a5.76,5.76,0,0,0-1.35-3.79,28.69,28.69,0,0,0-3.21-3.58,9.33,9.33,0,0,1-2.07-2.39v-2.29q0-1.14,1.65-1.14l26.84-.28a1.36,1.36,0,0,1,1.55,1.55v.83c0,.7-1.08,2.24-3.24,4.64s-3.23,4.43-3.23,6.09l.12,44.51q0,2.59,3.26,6.12t3.26,4.47v.93c0,1-.52,1.46-1.54,1.47l-26.85.07q-1.65,0-1.65-1.35a4.28,4.28,0,0,1,0-2.29,38.52,38.52,0,0,1,3.45-3.75c2.23-2.3,3.28-4.24,3.13-5.84l0-15.49a2.81,2.81,0,0,0-.83-2.07,2.77,2.77,0,0,0-2.07-.83l-16.93,0a3,3,0,0,0-2.11.84,2.7,2.7,0,0,0-.87,2.08l0,15.71c0,1.73,1.13,3.77,3.37,6.12s3.36,3.84,3.36,4.46V619a1.36,1.36,0,0,1-.51,1,1.69,1.69,0,0,1-1.14.47l-27.15.08a1.45,1.45,0,0,1-1-.42,1.25,1.25,0,0,1-.47-.94,3.21,3.21,0,0,1,0-2.28,39.47,39.47,0,0,1,3.4-3.81c2.2-2.33,3.29-4.25,3.29-5.78l-.11-44q0-2.38-3.27-5.81A31.08,31.08,0,0,1,585.32,553.53Z"/><path class="cls-1" d="M430.82,322.1c3.17,20.38,15.7,31.89,29.22,42,19.93,14.86,40.5,28.79,53.81,53.14,3.74-15.11.25-27-6.1-38.34-11.18-20-28.51-33.47-46.81-46-24.2-16.54-48.85-32.46-72.33-50-29.08-21.72-33.91-46.29-18.52-87,.62,6,.83,9.88,1.44,13.69,4.2,26.11,19.84,44.11,40.48,58.31,22.58,15.53,45.69,30.26,67.93,46.27,9.74,7,18.23,16,26.67,24.71,15.91,16.43,23.11,36.16,18.89,59.25-3.24,17.68-6.72,35.34-11.08,52.76-1.37,5.44-5.95,10.05-10.42,14.82-.33-20.91-9.55-36.31-25.29-50.85-1.63,20.53-2.17,39.79-19.14,54.29-2.5-13.8-9.27-22.66-22.87-28.27,0,9.34.94,17.66-.08,25.73-4.21,33.25-39.93,61.6-78.88,45.31-15-6.27-28.26-16.71-42.51-24.89-9.21-5.29-18.32-11.89-28.32-14.39-14-3.49-23.82,5.7-24.74,20.62-.4,6.65.49,13.37.92,22.74-7.39-20-12.2-37.81-4.62-56.38,6-14.69,24.34-21.68,40.31-16.32,15.32,5.15,26.64,15.84,37.55,27.24,12.31,12.85,27.2,19.94,45,19.38,15.9-.5,29.28-7.47,40.83-18.24,4.74-4.42,7.48-10.06,4.52-16.51-4.64-10.1-8.66-20.85-15.11-29.69-13.77-18.85-18.22-38-7-59.49a40.1,40.1,0,0,1,2.91-3.94c1.19,4.48,1.93,7.78,3,11,4.79,14.94,13.36,26.81,26.57,35.34,10.4,6.72,20.34,14.18,30.16,21.08,3.17-10.92-3.22-27.58-13.9-34.42-14.23-9.12-26.55-20-30.54-37.68C420,345,422.49,333.83,430.82,322.1Z"/><path class="cls-1" d="M338.42,286.58c1.32,23,15.46,34.61,34,42.76,8.91,3.92,17.58,8.4,26.65,12.77-3.93-10.42-12.28-16.64-22-21.52-30.24-15.17-42.5-47.34-30.12-79.16.66-1.7,1.81-3.19,4-7,.09,28.83,13.86,46.49,34.33,61,14.26,10.08,26.31,23.19,24.69,43.07-.62,7.72-3.44,15.26-5.19,22.57l-19.29-12.28-2.24,1.91c7,23.67,8.11,46.48-7.29,65.83-10.8-6.74-20.72-14-31.52-19.45-22.55-11.4-38.21-31.29-33.56-60.86a46.09,46.09,0,0,0,0-6.14c-14.5,6.84-23.59,17.44-28.06,31.68-1.1,3.52.55,9.65,3.16,12.38,11.2,11.7,22.63,23.35,35.13,33.55,13.57,11.08,28.9,19.92,42.58,30.87,13.18,10.54,17.52,24.91,12.6,41.64a9.37,9.37,0,0,1-1.14,2.61c-.31.48-1,.69-1.54,1-9.62-20.89-27.2-33.33-45.74-44.73-6.78-4.17-13.68-8.14-20.53-12.19-45.7-26.95-38.32-89-6.73-114.89,6.71-5.51,14.2-10,23.52-16.53-1.13,5.09-1.33,7.28-2.1,9.24-11.2,28.47,6.2,49.77,24.39,61.42,10.36,6.64,20.84,13.08,31.25,19.6-2.1-12.76-8.8-22.76-20.89-29.3-12.85-6.94-22.19-17-25.43-32C328.46,310.8,333.08,298.8,338.42,286.58Z"/><path class="cls-1" d="M378.24,132.71c-1.33,33.75,16.59,57.66,39.63,77.35,24,20.5,50.86,37.51,75.13,57.71,15.55,12.94,30.33,27.62,42.47,43.83,14.76,19.7,10.11,41.83,1.06,63.86-2.48-10.38-3.53-20.21-7.19-28.91-7.93-18.86-22.14-33.06-37.67-45.49-27.93-22.37-56.83-43.49-84.51-66.17-18.56-15.21-33.87-33.58-36.07-59.29C369.84,160.89,370.84,146.19,378.24,132.71Z"/><path class="cls-1" d="M378.3,64.85l17.21,18.5-16.45,11,15.88,17.15-17,13.54-15-13.4,13.83-15c-4.4-5.77-11.68-11.15-11.39-16C365.73,75.35,373.23,70.6,378.3,64.85Z"/><path class="cls-1" d="M318.17,260.77l-14.25-15.48,17.7-14.08,11.57,16.43L321.71,260.7l13.91,15.67L318.47,291l-13.79-15.57Z"/><path class="cls-1" d="M391,453.57l-15.32-16.23c5.45-4.75,10.8-9.4,16.35-14.22l14.9,14.42Z"/><rect class="cls-2" x="414.37" y="640.5" width="241.28" height="69.25"/><text class="cls-3" transform="translate(427.19 690.55)">Quiz.Com</text></svg>